<?xml version="1.0" encoding="iso-8859-1"?>
<!-- Generator: Adobe Illustrator 19.0.0, SVG Export Plug-In . SVG Version: 6.00 Build 0)  -->
<svg version="1.1" id="Capa_1" xmlns="http://www.w3.org/2000/svg" xmlns:xlink="http://www.w3.org/1999/xlink" x="0px" y="0px"
	 viewBox="0 0 512 512" style="enable-background:new 0 0 512 512;" xml:space="preserve">
<g>
	<g>
		<path d="M273.737,0.63C196.358-4.797,121.229,25.025,68.33,82.055C13.21,141.461-10.462,222.797,4.306,303.607
			C24.591,414.602,129.124,505.646,241.808,511.63c4.658,0.247,9.308,0.37,13.949,0.37c68.024-0.01,132.799-26.489,181.26-74.966
			l7.541-7.541c4.166-4.165,4.166-10.919,0-15.084l-15.083-15.081c-4.166-4.165-10.92-4.165-15.086,0l-7.541,7.541
			c-46.461,46.457-111.006,68.612-176.884,60.956C136.188,456.845,58.351,381.046,44.933,287.59
			c-9.313-64.696,10.626-129.038,54.67-176.526c44.107-47.519,106.193-72.258,171.259-67.873
			c107.568,7.323,198.469,107.955,198.469,219.764v35.728c0,17.673-14.328,31.999-32.002,31.999h-32.002v-5.177
			c0-14.305-11.503-26.096-25.81-26.072c-17.783,0.029-35.275-2.742-51.819-8.197c-9.021-3.114-20.293-0.229-25.606,5.271
			l-31.71,23.958c-36.523-19.76-59.378-42.592-78.858-78.831l23.001-30.614c6.938-6.937,9.417-17.072,6.438-26.603
			c-5.486-16.594-8.258-34.072-8.229-51.927c0.023-14.303-11.781-25.8-26.085-25.8h-53.92c-14.2,0-26.059,11.387-26.084,25.585
			c-0.265,150.7,122.391,273.348,273.106,273.072c14.193-0.026,25.576-11.879,25.576-26.072v-5.927h32.002
			c41.24,0,74.671-33.428,74.671-74.664v-35.728C512,120.007,402.89,9.411,273.737,0.63z"/>
	</g>
</g>
<g>
</g>
<g>
</g>
<g>
</g>
<g>
</g>
<g>
</g>
<g>
</g>
<g>
</g>
<g>
</g>
<g>
</g>
<g>
</g>
<g>
</g>
<g>
</g>
<g>
</g>
<g>
</g>
<g>
</g>
</svg>
